<?xml version="1.0" standalone="no"?>
<!DOCTYPE svg PUBLIC "-//W3C//DTD SVG 20010904//EN"
 "http://www.w3.org/TR/2001/REC-SVG-20010904/DTD/svg10.dtd">
<svg version="1.0" xmlns="http://www.w3.org/2000/svg"
 width="225.000000pt" height="225.000000pt" viewBox="0 0 225.000000 225.000000"
 preserveAspectRatio="xMidYMid meet">
<metadata>
Created by potrace 1.14, written by Peter Selinger 2001-2017
</metadata>
<g transform="translate(0.000000,225.000000) scale(0.100000,-0.100000)"
fill="#000000" stroke="none">
<path d="M1230 1260 l0 -360 33 0 c25 0 42 9 72 40 l39 40 -32 0 -32 0 0 120
0 120 145 0 145 0 0 40 0 40 -145 0 -145 0 0 120 0 120 145 0 145 0 0 40 0 40
-185 0 -185 0 0 -360z"/>
<path d="M1118 1523 l-38 -39 0 -404 0 -405 40 40 40 41 -2 402 -3 403 -37
-38z"/>
<path d="M940 1030 l0 -320 -105 0 -105 0 0 65 0 65 -40 0 -40 0 0 -105 0
-105 185 0 185 0 0 360 0 360 -40 0 -40 0 0 -320z"/>
</g>
</svg>
